<?xml version="1.0" encoding="iso-8859-1"?>
<!-- Generator: Adobe Illustrator 19.0.0, SVG Export Plug-In . SVG Version: 6.00 Build 0)  -->
<svg version="1.1" id="Layer_1" xmlns="http://www.w3.org/2000/svg" xmlns:xlink="http://www.w3.org/1999/xlink" x="0px" y="0px"
	 viewBox="0 0 297 297" style="enable-background:new 0 0 297 297;" xml:space="preserve">
<g>
	<g>
		<g>
			<g>
				<circle style="fill:#FFCF6D;" cx="148.5" cy="148.5" r="148.5"/>
			</g>
		</g>
	</g>
	<path style="fill:#E0AA4B;" d="M177.96,58.764c-3.491,1.519-7.235,1.349-8.46,0.736c-21-8-46-9-59,12c-4,7-5,15-4,22
		c2.98,49.67,11.937,99.365-13.421,146.107l57.324,57.369c72.002-0.906,131.654-53.044,144.173-121.645L177.96,58.764z"/>
	<g>
		<path style="fill:#8A9093;" d="M187.748,75.841c-7.885-24.772-34.55-38.347-59.284-30.017
			c-24.213,8.155-37.025,34.665-29.275,59.01l13.899,43.665l10.088-19.509l-9.225-28.982c-5.133-16.127,3.172-33.784,19.152-39.358
			c16.58-5.783,34.555,3.278,39.846,19.9l0.032,0.1c1.167,3.666,5.167,5.608,8.769,4.257l1.951-0.731
			C187.055,82.92,188.834,79.254,187.748,75.841L187.748,75.841z"/>
	</g>
	<g>
		<path style="fill:#747A7C;" d="M187.748,75.841c-5.865-18.427-22.124-30.649-40.247-32.277V59.19
			c11.52,1.561,21.688,9.548,25.449,21.361l0.032,0.1c1.167,3.667,5.167,5.608,8.769,4.257l1.951-0.731
			C187.055,82.92,188.834,79.254,187.748,75.841z"/>
	</g>
	<g>
		<path style="fill:#32373B;" d="M105.015,244.127h86.97c9.949,0,18.015-8.066,18.015-18.015v-86.97
			c0-9.949-8.066-18.015-18.015-18.015h-86.97c-9.949,0-18.015,8.066-18.015,18.015v86.97
			C87,236.062,95.066,244.127,105.015,244.127z"/>
	</g>
	<g>
		<path style="fill:#292D30;" d="M191.985,121.127H147.5v123h44.485c9.949,0,18.015-8.066,18.015-18.015v-86.97
			C210,129.193,201.935,121.127,191.985,121.127z"/>
	</g>
	<g>
		<path style="fill:#FFFFFF;" d="M160.614,175.056c0-6.69-5.423-12.114-12.114-12.114s-12.114,5.423-12.114,12.114
			c0,3.824,1.776,7.228,4.543,9.448v10.237c0,4.181,3.39,7.571,7.571,7.571s7.571-3.39,7.571-7.571v-10.237
			C158.838,182.284,160.614,178.88,160.614,175.056z"/>
	</g>
	<g>
		<path style="fill:#E3E5E4;" d="M148.5,162.943c-0.338,0-0.669,0.023-1,0.05v39.245c0.328,0.043,0.66,0.073,1,0.073
			c4.181,0,7.571-3.39,7.571-7.571v-10.237c2.767-2.22,4.543-5.625,4.543-9.448C160.614,168.366,155.19,162.943,148.5,162.943z"/>
	</g>
</g>
<g>
</g>
<g>
</g>
<g>
</g>
<g>
</g>
<g>
</g>
<g>
</g>
<g>
</g>
<g>
</g>
<g>
</g>
<g>
</g>
<g>
</g>
<g>
</g>
<g>
</g>
<g>
</g>
<g>
</g>
</svg>
