<?xml version="1.0" encoding="iso-8859-1"?>
<!-- Generator: Adobe Illustrator 19.0.0, SVG Export Plug-In . SVG Version: 6.00 Build 0)  -->
<svg version="1.1" id="Layer_1" xmlns="http://www.w3.org/2000/svg" xmlns:xlink="http://www.w3.org/1999/xlink" x="0px" y="0px"
	 viewBox="0 0 512 512" style="enable-background:new 0 0 512 512;" xml:space="preserve">
<circle style="fill:#386895;" cx="256" cy="256" r="256"/>
<path style="fill:#273B7A;" d="M511.328,237.465L391.006,117.143L91.476,420.524l75.598,75.598C194.774,506.385,224.73,512,256,512
	c141.384,0,256-114.616,256-256C512,249.766,511.766,243.588,511.328,237.465z"/>
<path style="fill:#FFC91B;" d="M185.808,401.556l-94.332,18.968l18.968-94.332L338.027,98.611c9.513-9.513,24.935-9.513,34.447,0
	l40.917,40.917c9.513,9.512,9.513,24.935,0,34.445L185.808,401.556z"/>
<path style="fill:#E5AC0E;" d="M413.389,139.528l-21.316-21.316L91.767,419.075l-0.291,1.448l94.332-18.968l227.583-227.583
	C422.902,164.462,422.902,149.04,413.389,139.528z"/>
<polygon style="fill:#263A7A;" points="91.476,420.524 123.513,414.117 97.883,388.487 "/>
<polygon style="fill:#121149;" points="91.765,419.078 91.476,420.524 123.513,414.117 110.102,400.706 "/>
<path style="fill:#FF7F4F;" d="M413.389,139.528l-40.917-40.917c-9.513-9.513-24.935-9.513-34.447,0l-32.066,32.066l75.364,75.364
	l32.068-32.068C422.902,164.462,422.902,149.04,413.389,139.528z"/>
<path style="fill:#FF5419;" d="M413.389,139.528l-21.316-21.316l-49.245,49.336l38.493,38.493l32.068-32.068
	C422.902,164.462,422.902,149.04,413.389,139.528z"/>
<polygon style="fill:#FFEDB5;" points="110.444,326.192 110.444,326.192 97.883,388.487 123.513,414.117 185.808,401.556 
	185.808,401.556 "/>
<polygon style="fill:#FEE187;" points="110.102,400.706 123.513,414.117 185.808,401.556 147.496,363.244 "/>
<g>
</g>
<g>
</g>
<g>
</g>
<g>
</g>
<g>
</g>
<g>
</g>
<g>
</g>
<g>
</g>
<g>
</g>
<g>
</g>
<g>
</g>
<g>
</g>
<g>
</g>
<g>
</g>
<g>
</g>
</svg>
