<svg xmlns="http://www.w3.org/2000/svg" xmlns:xlink="http://www.w3.org/1999/xlink" version="1.1" x="0px" y="0px" viewBox="0 0 64 80" enable-background="new 0 0 64 64" xml:space="preserve"><g><g><polygon fill="#000000" points="11.627,26.566 16.827,21.399 16.859,21.367 16.245,20.751 11.665,25.302 9.127,22.457     9.097,22.423 8.448,23.003 11.595,26.531   "/><polygon fill="#000000" points="11.665,35.546 9.127,32.7 9.097,32.666 8.448,33.246 11.595,36.774 11.627,36.809 16.827,31.643     16.859,31.61 16.245,30.994   "/><path fill="#000000" d="M12.653,40.176c-2.213,0-4.014,1.801-4.014,4.014c0,2.214,1.801,4.014,4.014,4.014    c2.214,0,4.014-1.801,4.014-4.014C16.667,41.976,14.867,40.176,12.653,40.176z M15.798,44.19c0,1.734-1.411,3.145-3.145,3.145    c-1.734,0-3.144-1.411-3.144-3.145c0-1.734,1.411-3.145,3.144-3.145C14.387,41.045,15.798,42.456,15.798,44.19z"/><rect x="20.25" y="23.183" fill="#000000" width="19.465" height="0.96"/><rect x="20.295" y="33.471" fill="#000000" width="19.375" height="0.87"/><rect x="20.295" y="43.756" fill="#000000" width="19.375" height="0.87"/></g><path fill="#000000" d="M58.953,12.879c-1.581-0.026-3.163-0.042-4.742-0.04c-0.778,0.002-1.509,0.244-2.113,0.713   c-0.905,0.703-1.434,1.854-1.446,3.148c-0.013,0.543-0.008,1.083-0.01,1.627l-0.008,0.727l0.001,0.828l0.046,25.491l3.268,9.421   l0.12,0.243c0.547,0.78,1.296,1.275,2.125,1.401c0.73,0.114,1.462-0.089,2.059-0.553c0.431-0.335,0.785-0.807,1.016-1.362   c0.87-2.097,1.527-4.316,2.163-6.459c0.315-1.044,0.623-2.084,0.952-3.11l0.046-0.144l0.014-23.76l0.022,0.003l0.017-1.949   c0.003-0.772,0.01-1.538-0.004-2.307C62.476,14.567,60.993,12.924,58.953,12.879z M52.63,45.044l-0.045-24.04l0.739-0.001   l0.933,0.006h0.001l0.024,23.927c-0.625,0.465-1.139,0.539-1.524,0.463L52.63,45.044z M57.719,45.111L57.719,45.111   c-1.664,0.769-2.447,0.105-2.658-0.127l-0.024-23.966l2.83,0.012l0,0L57.719,45.111z M59.562,47.511   c-0.551,1.86-1.125,3.777-1.824,5.574l-2.382-0.194l-2.323-6.679c0.457-0.009,0.997-0.152,1.594-0.567   c0.481,0.416,1.573,1.02,3.395,0.188c0.306,0.266,0.917,0.621,1.916,0.408C59.813,46.665,59.688,47.088,59.562,47.511z    M60.48,44.498c-0.09,0.278-0.176,0.561-0.262,0.845c-1.045,0.397-1.555,0.032-1.718-0.127c-0.001-0.001-0.001-0.001-0.002-0.002   l0.148-24.175l1.846,0.016L60.48,44.498z M60.533,16.807c0.011,0.752,0,1.501,0,2.251l-7.136-0.008l-0.811-0.002l0.002-0.722   c0-0.534,0.001-1.067,0.007-1.605c0.017-1.109,0.671-1.933,1.61-1.932c1.573,0.003,3.139,0.011,4.709,0.036   C59.879,14.846,60.535,15.64,60.533,16.807z"/><path fill="#000000" d="M1.516,18.509L1.513,39.602c-0.002,4.446-0.003,8.894,0.016,13.34c0.004,0.703,0.113,1.462,0.326,2.255   c0.734,2.743,3.447,5.696,7.668,5.697l0.152-0.001c2.196-0.038,4.406-0.03,6.611-0.019c0.959,0.004,1.917,0.007,2.876,0.007   l1.759-0.001l8.614,0.006c3.216,0,6.431-0.007,9.646-0.038c3.733-0.035,7.101-3.215,7.354-6.945   c0.127-1.889,0.117-3.859,0.108-5.597l-0.003-1.492c0.01-9.382,0.015-18.764,0-28.143c-0.007-4.747-3.467-8.198-8.229-8.204   l-1.139,0v2.59l0.176-0.004c0.888-0.017,1.859-0.06,2.945,0.31c2.258,0.772,3.607,2.747,3.609,5.283L44.005,35.5l-0.001,8.427   c0,0.891-0.006,1.782-0.011,2.673c-0.013,2.03-0.027,4.086,0.029,6.107c0.04,1.471-0.502,2.859-1.522,3.909   c-1.062,1.091-2.525,1.693-4.12,1.693c-4.206-0.024-8.409-0.031-12.611-0.031L9.733,58.29c-3.311,0-5.625-2.307-5.626-5.61   C4.102,41.575,4.1,30.472,4.119,19.369c0.001-0.865,0.025-1.778,0.289-2.583c0.697-2.127,2.219-3.383,4.398-3.632   c0.521-0.06,1.266-0.07,2.082-0.044v-2.642l-1.5,0.008c-0.588,0.004-1.145,0.067-1.657,0.186   C4.014,11.527,1.516,14.68,1.516,18.509z"/><path fill="#000000" d="M35.183,11.463l-0.002-0.755c0-1.629-0.181-2.876-2.451-2.876c-0.148,0-0.31,0.003-0.481,0.008L32.03,7.844   c-1.051,0-1.842-0.277-2.416-0.843c-0.479-0.481-0.875-1.148-1.258-1.795l-0.052-0.088c-0.775-1.316-1.945-2.011-3.391-2.011   l-0.102,0.001c-0.146,0.004-0.292,0.006-0.435,0.006l-0.775-0.004c-0.166,0-0.332,0.002-0.486,0.006   c-1.362,0.024-2.447,0.652-3.137,1.819c-0.14,0.236-0.271,0.474-0.403,0.711L19.534,5.72c-0.073,0.133-0.147,0.266-0.224,0.399   c-0.504,0.882-1.218,1.405-2.176,1.6c-0.439,0.085-0.924,0.089-1.439,0.094c-0.207,0.002-0.414,0.004-0.636,0.012   c-1.265,0.061-2.061,0.873-2.076,2.123c-0.008,0.79-0.008,1.929,0,2.708c0,1.581,0.791,2.382,2.35,2.382h17.63   c1.395,0,2.203-0.804,2.217-2.202C35.186,12.459,35.185,11.943,35.183,11.463z M20.868,6.417l0.623,0.191   c0.107-0.193,0.214-0.388,0.33-0.582c0.309-0.521,0.721-0.759,1.347-0.769c0.144-0.005,0.289-0.006,0.433-0.006l0.772,0.003   c0.165,0,0.33-0.001,0.546-0.007c0.684,0,1.144,0.287,1.541,0.962l0.054,0.09c0.431,0.726,0.919,1.547,1.589,2.216   c0.997,0.989,2.282,1.469,3.937,1.469l0.263-0.004c0.276-0.009,0.524-0.01,0.723-0.005c0.012,0.177,0.012,0.457,0.012,0.733   l0.002,0.759c0.002,0.467,0.003,0.97-0.002,1.341c0,0.032-0.001,0.061-0.002,0.085c-0.021,0-0.045,0.001-0.073,0.001h-17.63   c-0.087,0-0.152-0.002-0.201-0.004c-0.003-0.057-0.006-0.137-0.006-0.248c-0.009-0.777-0.009-1.895,0-2.672c0,0,0-0.002,0-0.004   c0.007-0.001,0.013-0.001,0.021-0.001c0.188-0.007,0.378-0.008,0.586-0.01c0.583-0.007,1.185-0.012,1.817-0.134   c1.561-0.317,2.813-1.229,3.619-2.636l0.257-0.459L20.868,6.417z"/></g></svg>
